<?xml version="1.0" standalone="no"?>
<!DOCTYPE svg PUBLIC "-//W3C//DTD SVG 20010904//EN"
 "http://www.w3.org/TR/2001/REC-SVG-20010904/DTD/svg10.dtd">
<svg version="1.0" xmlns="http://www.w3.org/2000/svg"
 width="1024.000000pt" height="1024.000000pt" viewBox="0 0 1024.000000 1024.000000"
 preserveAspectRatio="xMidYMid meet">

<g transform="translate(0.000000,1024.000000) scale(0.100000,-0.100000)"
fill="#000000" stroke="none">
<path d="M1140 9584 c-177 -38 -348 -171 -429 -334 -94 -192 -94 -386 0 -580
l41 -85 1732 -1732 1731 -1733 -1731 -1732 -1732 -1733 -41 -85 c-126 -258
-80 -543 118 -740 201 -199 482 -245 741 -119 l85 41 1996 1997 1997 1996 41
85 c23 47 48 117 56 155 31 146 12 285 -56 425 l-41 85 -1997 1996 -1996 1997
-85 41 c-140 68 -285 87 -430 55z"/>
<path d="M4980 9584 c-177 -38 -348 -171 -429 -334 -94 -192 -94 -386 0 -580
l41 -85 1732 -1732 1731 -1733 -1731 -1732 -1732 -1733 -41 -85 c-126 -258
-80 -543 118 -740 201 -199 482 -245 741 -119 l85 41 1996 1997 1997 1996 41
85 c23 47 48 117 56 155 31 146 12 285 -56 425 l-41 85 -1997 1996 -1996 1997
-85 41 c-140 68 -285 87 -430 55z"/>
</g>
</svg>
