<svg width="1179" height="1137" viewBox="0 0 1179 1137" fill="none" xmlns="http://www.w3.org/2000/svg">
<path d="M943.68 0.581345C803.28 6.84801 669.147 82.7147 591.68 199.781C566.214 238.448 549.414 273.915 532.88 324.848L527.814 340.448L393.147 340.981C245.28 341.515 249.547 341.248 214.88 349.915C112.88 375.248 32.7469 455.781 7.81359 558.048C0.21359 589.515 -2.31974 628.981 2.34692 642.581C7.68026 658.181 18.3469 669.915 33.4136 676.981C41.6803 680.981 43.4136 681.248 56.3469 681.248C69.2803 681.248 71.0136 680.981 79.4136 676.981C91.2803 671.381 101.547 661.515 107.014 650.448C110.48 643.381 111.414 639.248 112.48 628.181C116.347 585.648 118.747 575.381 130.88 550.581C140.347 531.381 150.747 516.981 165.947 502.448C180.747 488.315 208.347 469.648 208.347 473.915C208.347 476.181 130.88 843.915 130.214 844.448C129.947 844.715 126.347 841.915 122.347 838.048C118.347 834.181 111.014 829.248 106.08 826.848C97.5469 822.848 96.0803 822.581 82.3469 822.581C68.6136 822.581 67.1469 822.848 58.6136 826.848C35.8136 837.648 22.4803 862.581 26.6136 886.715C29.2803 901.915 34.3469 910.315 51.2803 926.715C177.814 1049.65 336.214 1121.25 512.347 1135.25C535.547 1137.11 601.28 1137.11 624.347 1135.25C797.414 1121.38 950.747 1053.51 1076.61 935.115C1091.15 921.381 1094.35 917.781 1098.48 909.248C1107.95 890.048 1105.95 867.248 1093.15 850.448C1073.55 824.448 1034.61 820.048 1011.41 841.115L1006.08 845.915L1004.61 838.848C984.88 748.581 916.214 424.048 916.08 420.848C915.947 418.315 917.014 414.981 918.614 412.981C923.947 405.781 924.614 405.781 983.014 425.248C1048.88 446.981 1056.48 448.581 1078.48 445.915C1124.88 440.181 1161.01 409.781 1175.28 364.581C1177.95 355.781 1178.35 352.048 1178.35 332.581C1178.21 297.248 1183.28 307.515 1091.15 153.915C1035.81 61.7813 1011.28 21.9147 1006.48 16.848C997.014 6.84801 985.547 1.64801 969.014 0.048012C966.88 -0.0853213 955.414 0.048012 943.68 0.581345ZM997.947 220.848C1032.21 279.781 1060.61 328.981 1061.01 330.181C1061.68 331.781 1049.28 328.181 1010.35 315.248C953.014 296.315 944.747 294.448 922.08 295.648C868.214 298.448 823.68 333.781 807.414 386.848C804.214 397.381 803.814 400.715 803.814 419.915L803.68 441.248L834.747 589.915C880.88 810.048 904.347 923.515 904.347 925.515C904.347 929.915 834.88 966.581 801.68 979.648C720.48 1011.65 638.347 1026.31 553.68 1024.18C477.147 1022.18 407.947 1008.18 337.28 980.315C300.48 965.781 232.347 930.181 232.347 925.515C232.347 923.915 325.414 474.581 328.48 461.515L329.947 455.248H450.747C522.88 455.248 574.88 454.715 579.68 453.915C597.28 451.115 614.48 438.715 621.68 423.915C623.28 420.581 629.68 399.781 635.814 377.648C648.347 332.981 652.614 321.381 665.28 296.181C713.28 201.515 803.414 135.115 909.014 116.715C917.147 115.381 926.347 114.181 929.68 114.048L935.68 113.915L997.947 220.848Z" fill="white"/>
<path d="M446.88 683.248C431.547 685.248 415.414 695.381 407.147 708.315C401.414 717.515 343.147 863.915 341.68 873.381C338.347 894.048 348.214 916.048 366.48 928.581C381.68 939.115 403.68 940.848 420.747 932.981C431.28 927.915 442.614 917.781 447.28 908.981C449.147 905.381 460.08 878.715 471.814 849.515L492.88 796.581H568.347H643.814L664.88 849.515C676.614 878.715 687.547 905.381 689.414 908.981C694.08 917.781 705.414 927.915 715.947 932.981C728.214 938.715 743.68 939.515 756.214 935.248C782.747 926.315 798.88 900.848 795.014 873.915C793.68 864.448 735.947 718.315 729.547 708.315C720.88 694.981 705.414 685.248 688.614 683.115C677.947 681.781 457.68 681.781 446.88 683.248Z" fill="white"/>
</svg>
