<svg width="1092" height="1094" viewBox="0 0 1092 1094" fill="none" xmlns="http://www.w3.org/2000/svg">
<path d="M143.533 1.33337C73.9333 8.26671 17.4 59.0667 2.86665 128C0.466652 139.6 -0.0666813 146 0.0666521 165.333C0.466652 240.533 22.8667 317.2 63.5333 381.6L72.4667 395.867L65 404.933C56.0667 415.733 49.1333 429.067 47 439.6C44.7333 450.533 45.9333 470.933 49.4 480.533C62.8667 517.6 102.733 543.333 151 546.133C176.2 547.733 199.133 542.8 222.333 530.933C231.933 526 236.733 522.4 246.467 512.667C260.067 499.067 266.867 487.733 270.467 472.533C273.267 460.533 272.333 442.533 268.333 431.067C256.333 396.533 216.733 369.467 173.133 365.733L163 364.933L155.533 355.067C129 319.733 107.667 273.6 98.4667 231.333C92.0667 202.267 89 160.267 92.2 145.067C97.4 120.533 119.533 98.4 144.067 93.2C154.733 91.0667 185.533 92.5333 202.333 96C241.4 104.267 278.067 122.933 307.8 149.867L317.533 158.667L318.067 271.733C318.6 395.467 318.333 390.8 327 425.333C335.933 460.8 351.133 496.533 367.4 520.667C370.467 525.067 386.2 546.4 402.467 568.133C437.533 614.933 438.2 616.267 438.333 638.667C438.333 658.133 437.133 661.067 415.133 690.667C397.667 714.133 389.267 728.933 382.867 748.133C375.8 769.2 373.533 781.733 372.867 804L372.2 824.667L390.733 958.667L409.133 1092.67L454.867 1093.07L500.733 1093.33L500.067 1087.07C499.667 1083.47 497.4 1065.87 494.867 1047.73C492.467 1029.6 490.733 1014.4 491.133 1014C492.733 1012.53 513.133 1009.2 529.533 1007.87C541.4 1006.8 551 1006.8 563.533 1007.87C580.067 1009.33 598.467 1012.4 600.2 1014C600.6 1014.4 598.867 1029.6 596.467 1047.73C593.933 1065.87 591.667 1083.47 591.267 1087.07L590.6 1093.33L636.467 1093.07L682.2 1092.67L700.6 958.667C718.867 825.733 719 824.533 718.467 804.667C717.8 782.933 715.267 768.4 708.467 748C701.933 728.8 693.533 713.733 676.2 690.533C654.333 661.333 653 658.267 653.133 638.667C653.133 616.267 653.8 614.933 688.867 568.133C705.133 546.4 720.867 525.067 723.933 520.667C740.2 496.533 755.4 460.8 764.333 425.333C773 390.8 772.733 395.467 773.267 271.733L773.8 158.667L783.8 149.733C799.933 135.2 815.667 124.667 835.667 114.8C865.267 100.133 889.533 93.7333 921.133 92.4C942.333 91.4666 949.4 92.6667 962.867 98.9333C973.667 104 987.8 117.867 992.867 128.267C998.6 140.133 1000.33 148.533 1000.33 166C1000.33 230.4 976.067 301.6 935.8 355.067L928.333 364.933L917.8 365.867C887.4 368.4 853.667 385.333 837 406.4C798.333 455.2 824.467 519.2 891.8 540.4C953.133 559.733 1023.27 531.733 1041.93 480.533C1045.4 470.933 1046.6 450.533 1044.33 439.6C1042.2 429.067 1035.27 415.733 1026.33 404.933L1018.87 395.867L1028.6 380.267C1069.13 314.933 1090.87 240.267 1091.27 165.333C1091.4 146.267 1090.87 139.467 1088.47 128.267C1075.13 65.0667 1027.27 16.9334 964.333 3.8667C953.4 1.60003 945.933 1.06665 930.333 1.06665C897 1.19998 872.067 6.13337 835.267 19.8667C797.933 34 774.067 38.6666 739.8 38.6666C705 38.6666 680.333 33.8666 643.4 20.1333C605.267 5.7333 581.267 1.06665 545.667 1.06665C510.067 1.06665 486.2 5.73333 448.2 20C408.333 34.9333 383.933 39.3333 345 38.2666C310.067 37.4666 292.333 33.7333 253.933 19.2C243.533 15.2 229 10.4 221.8 8.66663C196.6 2.26663 164.733 -0.666626 143.533 1.33337ZM582.467 95.8666C588.467 97.3333 602.2 101.867 613 106C632.333 113.2 658.733 121.067 674.067 124L681.667 125.467V251.6C681.667 393.867 682.2 386.133 670.733 421.067C661.133 450.933 653.533 463.733 618.067 510.8C583.4 556.933 577.133 566.667 570.333 585.733C558.467 618.933 558.067 657.2 569.267 688.4C574.867 704.4 581.533 715.6 599.8 740.133C613.133 758 618.067 765.867 620.733 773.2C624.333 782.933 629.4 807.333 628.067 808.667C627.8 809.067 624.2 808.667 620.2 808C579.8 800.267 525.267 799.733 479.933 806.667C471 808 463.533 808.933 463.133 808.667C462.867 808.4 463.667 802.533 464.733 795.6C468.467 773.867 472.067 766.267 491.533 740.133C509.8 715.6 516.467 704.4 522.067 688.4C532.733 658.667 532.867 620.267 522.333 589.2C515.533 569.2 509 558.933 475 513.333C437.667 463.467 430.2 450.933 420.6 421.067C409.133 386.133 409.667 393.867 409.667 251.6V125.467L417.4 124C434.333 120.667 456.6 114 478.2 106C497.8 98.8 508.733 95.6 524.333 92.8C526.2 92.5333 537.533 92.4 549.667 92.6666C566.2 92.9333 574.333 93.7333 582.467 95.8666ZM569.667 870.667C589.667 872.133 615 875.6 617.667 877.333C619.133 878.267 618.6 884.667 615 911.867C611.133 940.533 610.2 945.333 608.467 944.667C607.267 944.4 600.333 943.067 593 941.733C582.6 939.867 572.067 939.467 545.667 939.467C519.267 939.467 508.733 939.867 498.333 941.733C491 943.067 484.067 944.4 482.867 944.667C481.133 945.2 480.2 940.4 476.333 911.867C472.6 884 472.067 878.267 473.667 877.333C476.2 875.733 502.067 872 519 870.8C539.667 869.2 549.667 869.2 569.667 870.667Z" fill="white"/>
</svg>
