<svg data-name="015_HEALTH" viewBox="0 0 24 24" xmlns="http://www.w3.org/2000/svg"><path d="M12 21.373c-2.155 0-7.465-4.201-9.453-8.99A1 1 0 0 1 3.47 11h3.994l1.703-2.555a1 1 0 0 1 1.78.239l1.354 4.06.866-1.299A1 1 0 0 1 14 11h3a1 1 0 0 1 0 2h-2.465l-1.703 2.555a1 1 0 0 1-1.78-.239l-1.354-4.06-.866 1.299A1 1 0 0 1 8 13H5.082c2.107 3.645 5.987 6.33 6.922 6.373.74-.035 3.916-2.077 6.134-5.165 1.325-1.846 2.73-4.656 1.9-7.56a3.667 3.667 0 0 0-3.349-2.643 3.807 3.807 0 0 0-3.76 2.74 1 1 0 0 1-1.858 0 3.814 3.814 0 0 0-3.76-2.74 3.667 3.667 0 0 0-3.35 2.643 6.534 6.534 0 0 0-.238 1.41 1 1 0 1 1-1.996-.115 8.52 8.52 0 0 1 .311-1.845 5.67 5.67 0 0 1 5.171-4.09A5.533 5.533 0 0 1 12 4.32a5.513 5.513 0 0 1 4.791-2.314 5.67 5.67 0 0 1 5.17 4.091c1.09 3.818-.732 7.338-2.452 9.62-2.233 2.96-5.812 5.655-7.509 5.655Z" fill="#ffffff" class="fill-333333"></path></svg>