<?xml version="1.0" standalone="no"?>
<!DOCTYPE svg PUBLIC "-//W3C//DTD SVG 20010904//EN"
 "http://www.w3.org/TR/2001/REC-SVG-20010904/DTD/svg10.dtd">
<svg version="1.0" xmlns="http://www.w3.org/2000/svg"
 width="1024.000000pt" height="1024.000000pt" viewBox="0 0 1024.000000 1024.000000"
 preserveAspectRatio="xMidYMid meet">

<g transform="translate(0.000000,1024.000000) scale(0.100000,-0.100000)"
fill="#000000" stroke="none">
<path d="M2368 8734 c-293 -53 -555 -260 -684 -540 -104 -224 -104 -504 0
-729 125 -271 355 -459 651 -531 103 -26 304 -23 410 5 324 86 579 339 668
666 32 116 31 345 -1 460 -30 105 -89 225 -150 305 -217 286 -558 425 -894
364z"/>
<path d="M8705 8709 c-129 -30 -249 -83 -402 -180 -51 -32 -102 -63 -113 -69
-18 -10 -37 -3 -123 39 -142 72 -231 93 -387 93 -151 0 -241 -21 -375 -87
-179 -87 -292 -216 -352 -400 -21 -65 -26 -101 -27 -190 -1 -125 12 -187 59
-292 52 -114 130 -218 260 -348 161 -161 282 -230 423 -242 208 -17 411 124
617 432 178 265 231 469 165 635 l-20 51 35 14 c76 32 152 10 193 -56 35 -58
45 -117 43 -264 -3 -498 109 -720 405 -795 127 -33 221 -22 343 39 95 48 293
217 266 227 -5 2 -48 27 -95 54 -100 59 -164 122 -179 176 -7 21 -18 129 -26
239 -21 275 -39 381 -90 526 -72 206 -209 352 -370 394 -64 16 -186 18 -250 4z"/>
<path d="M7063 6829 c-76 -13 -179 -54 -253 -101 -76 -49 -1210 -1171 -1316
-1303 -83 -103 -116 -171 -122 -256 -6 -80 16 -135 79 -204 70 -76 120 -100
209 -100 148 1 227 61 679 523 181 185 333 333 338 329 4 -5 8 -124 8 -265 -1
-366 -24 -485 -156 -798 -78 -187 -124 -308 -236 -619 -41 -115 -81 -227 -89
-247 l-13 -38 1484 0 1484 0 -20 73 c-34 125 -95 294 -190 532 -165 415 -231
625 -260 835 -16 114 -16 335 0 444 l13 89 392 -396 c362 -366 396 -398 461
-429 60 -28 80 -33 145 -33 58 1 85 6 118 23 62 33 114 83 148 144 25 46 29
64 29 128 0 61 -6 87 -30 140 -27 60 -73 110 -659 699 -347 349 -647 649 -666
667 -61 55 -161 113 -244 142 l-81 27 -600 1 c-330 1 -623 -2 -652 -7z"/>
<path d="M2107 6759 c-177 -9 -286 -31 -386 -80 -84 -42 -257 -204 -906 -854
-378 -379 -518 -525 -540 -566 -27 -48 -30 -63 -30 -139 0 -75 3 -91 29 -138
34 -60 86 -111 148 -144 34 -18 60 -23 123 -23 142 0 140 -1 605 464 l405 406
3 -292 2 -293 63 0 c83 0 182 22 208 46 50 44 53 67 59 419 6 359 8 376 67
437 59 61 73 63 568 63 483 0 495 -1 556 -52 16 -14 40 -44 52 -67 21 -39 22
-56 27 -381 5 -317 6 -342 25 -374 11 -19 31 -42 46 -53 27 -20 121 -37 207
-38 l52 0 0 298 1 297 407 -411 c467 -470 465 -469 607 -469 70 0 87 4 133 29
66 37 117 92 149 163 22 47 25 66 21 127 -8 125 -12 130 -518 640 -567 571
-831 824 -907 868 -74 43 -151 74 -233 93 -139 31 -657 43 -1043 24z"/>
<path d="M2267 5900 c-99 -12 -157 -44 -185 -101 -28 -56 -42 -198 -42 -431 0
-86 -5 -180 -11 -207 -23 -107 -80 -151 -260 -204 -124 -36 -200 -73 -225
-112 -9 -13 -26 -95 -40 -184 -20 -136 -124 -931 -124 -953 0 -5 198 -8 440
-8 475 0 500 2 534 54 8 13 45 90 82 172 37 82 68 150 69 152 2 2 49 -74 106
-168 91 -150 109 -173 145 -190 38 -19 63 -20 457 -20 l417 0 0 33 c0 97 -82
989 -95 1033 -20 69 -69 132 -126 161 -25 13 -88 31 -139 39 -138 22 -201 62
-244 154 -19 41 -21 70 -26 345 -6 322 -10 346 -61 391 -47 42 -82 47 -349 50
-140 1 -286 -1 -323 -6z"/>
<path d="M6792 2653 l4 -868 24 -60 c16 -40 40 -76 76 -113 136 -135 345 -156
503 -51 65 43 101 86 134 157 l22 47 3 878 3 877 -387 0 -386 0 4 -867z"/>
<path d="M7792 2678 c5 -829 5 -844 26 -909 63 -193 229 -296 431 -268 119 17
221 90 276 198 55 109 55 107 55 999 l0 822 -396 0 -396 0 4 -842z"/>
<path d="M1560 2678 c0 -674 3 -813 15 -866 38 -162 139 -270 287 -308 213
-55 418 84 467 314 8 36 11 304 11 857 l0 805 -390 0 -390 0 0 -802z"/>
<path d="M2710 2675 c0 -548 4 -821 11 -857 59 -284 357 -417 586 -262 57 39
88 75 123 144 56 109 54 80 57 963 l4 817 -391 0 -390 0 0 -805z"/>
</g>
</svg>
