<?xml version="1.0" standalone="no"?>
<!DOCTYPE svg PUBLIC "-//W3C//DTD SVG 20010904//EN"
 "http://www.w3.org/TR/2001/REC-SVG-20010904/DTD/svg10.dtd">
<svg version="1.0" xmlns="http://www.w3.org/2000/svg"
 width="1024.000000pt" height="1024.000000pt" viewBox="0 0 1024.000000 1024.000000"
 preserveAspectRatio="xMidYMid meet">

<g transform="translate(0.000000,1024.000000) scale(0.100000,-0.100000)"
fill="#000000" stroke="none">
<path d="M3275 9064 c-654 -65 -1213 -332 -1653 -788 -701 -729 -867 -1585
-501 -2583 l41 -113 942 0 c895 0 943 -1 981 -19 63 -29 90 -67 153 -212 32
-74 63 -143 69 -153 8 -14 31 33 115 231 133 311 300 712 553 1328 217 527
223 540 257 571 91 84 242 68 310 -32 14 -21 318 -745 674 -1607 579 -1401
649 -1565 660 -1545 6 13 71 167 144 343 398 961 713 1698 746 1741 70 94 239
97 317 5 12 -15 83 -168 157 -339 l135 -312 850 0 851 0 47 128 c80 214 138
442 168 662 20 144 17 481 -4 615 -81 493 -290 896 -669 1291 -268 279 -601
498 -963 634 -403 152 -893 198 -1330 124 -399 -67 -819 -248 -1120 -483 -33
-26 -66 -51 -73 -55 -8 -5 -44 16 -100 57 -368 271 -729 421 -1182 492 -100
16 -482 28 -575 19z"/>
<path d="M4362 6600 c-17 -45 -377 -909 -477 -1145 -248 -588 -389 -911 -408
-937 -28 -38 -111 -78 -161 -78 -51 0 -119 31 -154 68 -16 17 -83 159 -162
340 l-135 312 -1350 0 c-1293 0 -1352 -1 -1390 -19 -136 -63 -166 -230 -62
-335 24 -24 60 -47 83 -54 31 -9 220 -12 757 -12 l715 0 96 -137 c118 -169
285 -387 432 -564 486 -585 974 -1076 2114 -2129 157 -144 389 -363 517 -487
135 -130 247 -230 267 -238 46 -19 107 -19 154 0 21 9 92 69 167 143 201 197
323 313 680 642 1057 975 1550 1472 2032 2050 169 202 345 432 467 608 l78
112 715 0 c537 0 726 3 757 12 23 7 59 30 83 54 106 107 71 280 -69 338 -33
14 -197 16 -1464 16 -1054 0 -1437 3 -1465 12 -77 23 -108 62 -178 224 -35 82
-67 153 -71 157 -10 12 -176 -378 -651 -1531 -125 -304 -235 -564 -244 -578
-8 -13 -34 -36 -56 -51 -85 -56 -215 -37 -273 41 -13 17 -315 735 -671 1596
-356 861 -651 1572 -655 1580 -7 12 -11 10 -18 -10z"/>
</g>
</svg>
