<?xml version="1.0" standalone="no"?>
<!DOCTYPE svg PUBLIC "-//W3C//DTD SVG 20010904//EN"
 "http://www.w3.org/TR/2001/REC-SVG-20010904/DTD/svg10.dtd">
<svg version="1.0" xmlns="http://www.w3.org/2000/svg"
 width="1024.000000pt" height="1024.000000pt" viewBox="0 0 1024.000000 1024.000000"
 preserveAspectRatio="xMidYMid meet">

<g transform="translate(0.000000,1024.000000) scale(0.100000,-0.100000)"
fill="#000000" stroke="none">
<path d="M1310 9130 c-410 -50 -809 -299 -1042 -650 -103 -156 -188 -362 -228
-552 -70 -338 -43 -887 65 -1328 148 -597 439 -1008 771 -1086 38 -9 91 -14
117 -11 47 4 49 3 120 -61 277 -249 567 -413 827 -468 117 -24 289 -23 391 4
469 124 699 677 513 1230 -36 109 -124 274 -199 374 -77 102 -225 245 -323
312 l-72 50 0 47 c0 62 -30 157 -70 219 -96 149 -271 233 -490 233 -132 0
-247 -22 -408 -78 -202 -72 -272 -59 -307 58 -48 163 18 389 155 528 155 157
374 188 660 93 164 -55 213 -84 678 -403 220 -151 404 -239 570 -271 l61 -12
7 -47 c41 -295 163 -926 234 -1206 58 -229 66 -245 235 -410 78 -77 148 -151
155 -163 23 -47 14 -105 -38 -228 -101 -238 -125 -338 -124 -514 0 -101 5
-143 25 -223 56 -211 200 -452 378 -630 l108 -107 4 -1093 c3 -1225 -2 -1133
78 -1288 79 -153 219 -270 385 -325 l89 -29 485 0 485 0 89 29 c167 55 305
172 385 325 80 155 75 63 78 1288 l4 1092 108 108 c178 179 323 420 378 630
20 79 25 122 26 223 0 173 -29 291 -133 533 -46 108 -53 163 -27 212 8 17 70
82 138 145 153 143 187 195 227 342 77 279 191 853 258 1299 5 36 7 37 66 49
166 32 350 120 570 271 465 319 514 348 678 403 286 95 505 64 660 -93 137
-139 203 -365 155 -528 -35 -117 -105 -130 -307 -58 -161 56 -276 78 -408 78
-219 0 -394 -84 -490 -233 -40 -62 -70 -157 -70 -219 l0 -47 -72 -50 c-92 -63
-241 -204 -312 -297 -293 -383 -357 -866 -165 -1238 99 -191 267 -327 468
-381 102 -27 274 -28 391 -4 259 55 524 204 807 452 92 81 93 81 140 77 158
-15 367 102 518 290 287 356 449 910 471 1602 13 381 -35 643 -166 910 -262
537 -841 880 -1392 826 -333 -33 -532 -124 -1113 -507 -164 -108 -341 -202
-431 -227 l-50 -15 -24 52 c-39 82 -143 179 -242 225 -152 71 -282 92 -558 92
-204 0 -282 -6 -650 -46 -485 -53 -494 -53 -1030 6 -765 84 -1110 42 -1309
-158 -37 -38 -77 -90 -91 -119 l-24 -52 -50 15 c-100 28 -274 124 -501 273
-362 239 -507 319 -694 384 -195 68 -426 97 -601 76z m360 -350 c163 -35 343
-119 565 -264 308 -202 430 -278 527 -330 106 -57 283 -122 360 -132 38 -5 47
-12 78 -57 19 -27 39 -56 44 -62 6 -8 -6 -35 -37 -82 -25 -38 -55 -91 -66
-116 -11 -26 -25 -47 -31 -47 -30 0 -175 57 -260 101 -52 28 -162 98 -245 156
-449 316 -625 407 -892 460 -129 25 -343 23 -448 -6 -358 -96 -614 -429 -632
-822 -21 -451 288 -695 695 -548 173 62 251 80 352 81 112 1 164 -16 211 -70
27 -31 31 -41 26 -79 -9 -83 -98 -145 -227 -158 -106 -12 -163 -54 -181 -134
-12 -55 5 -102 67 -176 95 -116 134 -219 114 -296 -24 -88 -118 -98 -257 -27
-109 55 -133 61 -186 47 -68 -18 -101 -63 -126 -170 -26 -112 -62 -181 -106
-205 -29 -16 -38 -16 -76 -5 -215 65 -437 461 -538 959 -63 308 -87 712 -57
938 58 435 281 766 642 952 224 114 444 144 684 92z m7360 -6 c186 -47 369
-153 516 -299 178 -178 293 -401 340 -663 45 -257 19 -730 -61 -1084 -103
-456 -322 -828 -522 -888 -88 -27 -145 37 -184 208 -17 78 -26 99 -55 127 -38
38 -99 59 -141 49 -15 -4 -67 -27 -114 -51 -140 -72 -235 -62 -259 26 -20 77
19 180 114 296 62 75 79 121 67 176 -18 79 -77 122 -181 134 -129 13 -218 75
-227 158 -5 38 -1 48 26 79 47 54 99 71 211 70 101 -1 179 -19 352 -81 337
-122 609 20 684 357 24 107 15 276 -21 397 -130 438 -487 683 -930 637 -290
-30 -504 -123 -855 -368 -333 -233 -430 -291 -574 -339 -41 -14 -80 -25 -86
-25 -6 0 -20 21 -31 47 -11 25 -41 78 -66 116 -31 47 -43 74 -37 82 5 6 25 35
44 63 23 33 42 52 55 52 30 0 158 37 244 70 112 43 255 127 536 310 407 267
588 349 830 374 78 8 231 -6 325 -30z m-5415 -1138 c227 -172 361 -348 429
-564 14 -45 38 -153 52 -240 14 -86 37 -198 50 -249 59 -230 176 -450 319
-601 l63 -67 5 -370 c5 -402 9 -433 66 -559 16 -35 47 -90 69 -122 46 -69 166
-186 234 -229 l47 -30 1 -122 0 -122 -86 -91 c-197 -206 -380 -272 -538 -194
-173 85 -394 415 -427 638 -20 130 6 248 103 476 25 58 51 130 58 160 19 81
15 194 -10 265 -37 107 -80 161 -267 336 -94 88 -88 73 -163 409 -61 272 -101
474 -150 765 -43 253 -56 374 -46 428 9 48 83 160 99 151 6 -4 48 -35 92 -68z
m3182 -34 c24 -50 26 -60 20 -145 -11 -162 -105 -688 -197 -1097 -75 -336 -69
-321 -163 -409 -187 -174 -230 -229 -268 -336 -25 -71 -29 -184 -9 -265 7 -30
33 -102 58 -160 125 -292 138 -433 62 -627 -78 -197 -258 -424 -386 -487 -158
-78 -341 -12 -538 194 l-86 91 0 122 1 122 46 30 c117 73 246 223 303 349 58
128 62 158 67 561 l5 370 63 67 c143 151 260 371 319 601 13 51 36 163 50 249
42 252 95 393 206 540 61 80 183 196 293 278 l82 61 23 -28 c12 -15 34 -52 49
-81z"/>
</g>
</svg>
