<?xml version="1.0" standalone="no"?>
<!DOCTYPE svg PUBLIC "-//W3C//DTD SVG 20010904//EN"
 "http://www.w3.org/TR/2001/REC-SVG-20010904/DTD/svg10.dtd">
<svg version="1.0" xmlns="http://www.w3.org/2000/svg"
 width="1024.000000pt" height="1024.000000pt" viewBox="0 0 1024.000000 1024.000000"
 preserveAspectRatio="xMidYMid meet">

<g transform="translate(0.000000,1024.000000) scale(0.100000,-0.100000)"
fill="#000000" stroke="none">
<path d="M4705 10215 c-1065 -90 -2035 -488 -2865 -1175 -161 -133 -507 -479
-640 -640 -922 -1114 -1326 -2497 -1149 -3930 210 -1697 1292 -3201 2844
-3951 1815 -877 3954 -610 5515 689 148 124 498 474 622 622 711 854 1111
1852 1189 2965 14 209 6 642 -16 845 -115 1044 -499 1956 -1165 2760 -133 161
-479 507 -640 640 -849 703 -1835 1100 -2930 1180 -180 13 -579 11 -765 -5z
m720 -945 c1467 -109 2764 -981 3421 -2299 216 -436 349 -887 410 -1396 26
-211 26 -699 0 -910 -38 -316 -94 -569 -191 -860 -74 -223 -128 -353 -236
-565 -611 -1207 -1772 -2043 -3104 -2234 -1306 -189 -2599 236 -3530 1159
-613 608 -1013 1366 -1169 2215 -48 262 -60 412 -60 740 0 329 11 467 60 740
308 1716 1672 3069 3388 3360 150 25 300 43 446 53 111 8 438 6 565 -3z"/>
<path d="M3870 6998 c-49 -18 -85 -51 -322 -287 -306 -305 -322 -328 -322
-457 -1 -135 0 -136 528 -664 l466 -465 -469 -470 c-311 -312 -477 -485 -492
-515 -20 -38 -24 -60 -24 -140 0 -78 4 -103 22 -140 32 -65 536 -569 600 -601
69 -34 208 -34 273 0 30 15 202 180 517 494 l473 472 477 -476 c534 -532 523
-523 653 -524 135 0 140 3 447 308 319 317 328 331 321 471 -3 64 -10 92 -32
132 -19 35 -165 188 -496 519 l-470 470 479 480 c535 537 516 513 516 655 0
126 -13 145 -322 451 -247 246 -273 268 -328 289 -79 29 -178 25 -250 -9 -39
-19 -154 -127 -523 -495 l-472 -470 -478 476 c-447 446 -481 477 -535 497 -75
27 -163 27 -237 -1z"/>
</g>
</svg>
